{
    "asset" : {
        "generator" : "Khronos glTF Blender I/O v3.2.43",
        "version" : "2.0"
    },
    "scene" : 0,
    "scenes" : [
        {
            "name" : "Scene",
            "nodes" : [
                27
            ]
        }
    ],
    "nodes" : [
        {
            "name" : "Object_22"
        },
        {
            "children" : [
                0
            ],
            "name" : "Object_21",
            "rotation" : [
                0.7071068286895752,
                0,
                0,
                0.7071067094802856
            ]
        },
        {
            "children" : [
                1
            ],
            "name" : "Sky_Dome"
        },
        {
            "children" : [
                2
            ],
            "name" : "Physical_Sky"
        },
        {
            "mesh" : 0,
            "name" : "Cube_floor court_0"
        },
        {
            "mesh" : 1,
            "name" : "Cube_Mat.1_0"
        },
        {
            "children" : [
                4,
                5
            ],
            "name" : "Cube.001",
            "translation" : [
                -4,
                -9.999999046325684,
                -1.9999995231628418
            ]
        },
        {
            "name" : "Symmetry",
            "scale" : [
                2.5,
                2.499999761581421,
                2.499999761581421
            ],
            "translation" : [
                217.334716796875,
                -27.500001907348633,
                0
            ]
        },
        {
            "name" : "Symmetry_2",
            "rotation" : [
                0,
                -1,
                0,
                6.123234262925839e-17
            ],
            "scale" : [
                2.5,
                2.499999761581421,
                2.499999761581421
            ],
            "translation" : [
                -211.665283203125,
                -27.500001907348633,
                0
            ]
        },
        {
            "children" : [
                7,
                8
            ],
            "name" : "Hoops"
        },
        {
            "name" : "Symmetry_3"
        },
        {
            "children" : [
                10
            ],
            "name" : "lights"
        },
        {
            "children" : [
                11
            ],
            "name" : "Lights"
        },
        {
            "name" : "Sweep_1",
            "scale" : [
                3,
                1,
                3
            ]
        },
        {
            "name" : "Sweep_2_2",
            "scale" : [
                3,
                1,
                3
            ]
        },
        {
            "name" : "Sweep_3_2",
            "scale" : [
                3,
                1,
                3
            ]
        },
        {
            "name" : "Sweep_4_2",
            "scale" : [
                3,
                1,
                3
            ]
        },
        {
            "name" : "Sweep_5",
            "scale" : [
                3,
                1,
                3
            ]
        },
        {
            "mesh" : 2,
            "name" : "Sweep_5_2_Basket ball lines _0"
        },
        {
            "children" : [
                18
            ],
            "name" : "Sweep_5_2",
            "scale" : [
                3,
                1,
                3
            ]
        },
        {
            "name" : "Sweep_6",
            "scale" : [
                3,
                1,
                3
            ]
        },
        {
            "mesh" : 3,
            "name" : "Sweep_7_Basket ball lines _0"
        },
        {
            "children" : [
                21
            ],
            "name" : "Sweep_7",
            "scale" : [
                3,
                1,
                3
            ]
        },
        {
            "name" : "Sweep_8",
            "scale" : [
                3,
                1,
                3
            ]
        },
        {
            "children" : [
                13,
                14,
                15,
                16,
                17,
                19,
                20,
                22,
                23
            ],
            "name" : "Lines",
            "translation" : [
                0,
                -0.3999995291233063,
                0
            ]
        },
        {
            "children" : [
                3,
                6,
                9,
                12,
                24
            ],
            "name" : "RootNode"
        },
        {
            "children" : [
                25
            ],
            "name" : "0ec05bb5a19f43299c2d1f337a6bc5da.fbx",
            "rotation" : [
                0.7071068286895752,
                0,
                0,
                0.7071067094802856
            ]
        },
        {
            "children" : [
                26
            ],
            "name" : "Sketchfab_model",
            "rotation" : [
                -0.7071068286895752,
                0,
                0,
                0.7071067094802856
            ]
        }
    ],
    "materials" : [
        {
            "doubleSided" : true,
            "name" : "floor_court",
            "pbrMetallicRoughness" : {}
        },
        {
            "doubleSided" : true,
            "name" : "Mat.1",
            "pbrMetallicRoughness" : {}
        },
        {
            "doubleSided" : true,
            "name" : "Basket_ball_lines",
            "pbrMetallicRoughness" : {}
        }
    ],
    "meshes" : [
        {
            "name" : "Cube_floor court_0",
            "primitives" : [
                {
                    "attributes" : {
                        "POSITION" : 0,
                        "NORMAL" : 1,
                        "TEXCOORD_0" : 2
                    },
                    "indices" : 3,
                    "material" : 0
                }
            ]
        },
        {
            "name" : "Cube_Mat.1_0",
            "primitives" : [
                {
                    "attributes" : {
                        "POSITION" : 4,
                        "NORMAL" : 5,
                        "TEXCOORD_0" : 6
                    },
                    "indices" : 7,
                    "material" : 1
                }
            ]
        },
        {
            "name" : "Sweep_5_2_Basket ball lines _0",
            "primitives" : [
                {
                    "attributes" : {
                        "POSITION" : 8,
                        "NORMAL" : 9,
                        "TEXCOORD_0" : 10
                    },
                    "indices" : 11,
                    "material" : 2
                }
            ]
        },
        {
            "name" : "Sweep_7_Basket ball lines _0",
            "primitives" : [
                {
                    "attributes" : {
                        "POSITION" : 12,
                        "NORMAL" : 13,
                        "TEXCOORD_0" : 14
                    },
                    "indices" : 15,
                    "material" : 2
                }
            ]
        }
    ],
    "accessors" : [
        {
            "bufferView" : 0,
            "componentType" : 5126,
            "count" : 4,
            "max" : [
                1197.955078125,
                10,
                743.8444213867188
            ],
            "min" : [
                -1193.66796875,
                10,
                -721.215087890625
            ],
            "type" : "VEC3"
        },
        {
            "bufferView" : 1,
            "componentType" : 5126,
            "count" : 4,
            "type" : "VEC3"
        },
        {
            "bufferView" : 2,
            "componentType" : 5126,
            "count" : 4,
            "type" : "VEC2"
        },
        {
            "bufferView" : 3,
            "componentType" : 5123,
            "count" : 6,
            "type" : "SCALAR"
        },
        {
            "bufferView" : 4,
            "componentType" : 5126,
            "count" : 80,
            "max" : [
                1468.7637939453125,
                10,
                1875
            ],
            "min" : [
                -1730,
                -10,
                -1577.0120849609375
            ],
            "type" : "VEC3"
        },
        {
            "bufferView" : 5,
            "componentType" : 5126,
            "count" : 80,
            "type" : "VEC3"
        },
        {
            "bufferView" : 6,
            "componentType" : 5126,
            "count" : 80,
            "type" : "VEC2"
        },
        {
            "bufferView" : 7,
            "componentType" : 5123,
            "count" : 174,
            "type" : "SCALAR"
        },
        {
            "bufferView" : 8,
            "componentType" : 5126,
            "count" : 408,
            "max" : [
                347.3466796875,
                0.5,
                248
            ],
            "min" : [
                -348,
                -0.5,
                -242
            ],
            "type" : "VEC3"
        },
        {
            "bufferView" : 9,
            "componentType" : 5126,
            "count" : 408,
            "type" : "VEC3"
        },
        {
            "bufferView" : 10,
            "componentType" : 5126,
            "count" : 408,
            "type" : "VEC2"
        },
        {
            "bufferView" : 11,
            "componentType" : 5123,
            "count" : 612,
            "type" : "SCALAR"
        },
        {
            "bufferView" : 12,
            "componentType" : 5126,
            "count" : 348,
            "max" : [
                65.50740051269531,
                0.5,
                64.00740051269531
            ],
            "min" : [
                -63.50740432739258,
                -0.5,
                -65.00740051269531
            ],
            "type" : "VEC3"
        },
        {
            "bufferView" : 13,
            "componentType" : 5126,
            "count" : 348,
            "type" : "VEC3"
        },
        {
            "bufferView" : 14,
            "componentType" : 5126,
            "count" : 348,
            "type" : "VEC2"
        },
        {
            "bufferView" : 15,
            "componentType" : 5123,
            "count" : 864,
            "type" : "SCALAR"
        }
    ],
    "bufferViews" : [
        {
            "buffer" : 0,
            "byteLength" : 48,
            "byteOffset" : 0
        },
        {
            "buffer" : 0,
            "byteLength" : 48,
            "byteOffset" : 48
        },
        {
            "buffer" : 0,
            "byteLength" : 32,
            "byteOffset" : 96
        },
        {
            "buffer" : 0,
            "byteLength" : 12,
            "byteOffset" : 128
        },
        {
            "buffer" : 0,
            "byteLength" : 960,
            "byteOffset" : 140
        },
        {
            "buffer" : 0,
            "byteLength" : 960,
            "byteOffset" : 1100
        },
        {
            "buffer" : 0,
            "byteLength" : 640,
            "byteOffset" : 2060
        },
        {
            "buffer" : 0,
            "byteLength" : 348,
            "byteOffset" : 2700
        },
        {
            "buffer" : 0,
            "byteLength" : 4896,
            "byteOffset" : 3048
        },
        {
            "buffer" : 0,
            "byteLength" : 4896,
            "byteOffset" : 7944
        },
        {
            "buffer" : 0,
            "byteLength" : 3264,
            "byteOffset" : 12840
        },
        {
            "buffer" : 0,
            "byteLength" : 1224,
            "byteOffset" : 16104
        },
        {
            "buffer" : 0,
            "byteLength" : 4176,
            "byteOffset" : 17328
        },
        {
            "buffer" : 0,
            "byteLength" : 4176,
            "byteOffset" : 21504
        },
        {
            "buffer" : 0,
            "byteLength" : 2784,
            "byteOffset" : 25680
        },
        {
            "buffer" : 0,
            "byteLength" : 1728,
            "byteOffset" : 28464
        }
    ],
    "buffers" : [
        {
            "byteLength" : 30192,
            "uri" : "data:application/octet-stream;base64,"
        }
    ]
}
